<svg version="1.0" xmlns="http://www.w3.org/2000/svg" width="1877.333" height="1877.333" viewBox="0 0 1408 1408"><path d="M686.4 10.3c-3.8 5.6-7.5 11.3-8.2 12.7-.7 1.3-1.6 2.7-2 3-1.1.8-10.6 15.5-10.3 15.9.2.2-.1.7-.6 1-1.3.9-8.3 11-8.3 11.9 0 .5-.8 1.7-1.8 2.8-.9 1-3.3 4.4-5.2 7.4-1.9 3-3.7 5.7-4 6-.3.3-3 4.3-6 9s-5.7 8.7-6 9c-.3.3-2.1 3-4 6s-3.9 6-4.5 6.7c-.5.7-1.6 1.9-2.3 2.8-.7.8-1 1.5-.7 1.5.3 0-1.3 2.5-3.5 5.5s-4 5.6-4 5.9c0 .3-3.1 5-7 10.6-3.8 5.6-7 10.3-7 10.6 0 .3-1.8 2.9-4 5.9-2.2 3-3.8 5.5-3.5 5.5.4 0 0 .7-.7 1.5-2.3 2.5-3.3 3.9-6.8 9.5-1.9 3-3.7 5.7-4 6-.3.3-3 4.3-6 9s-5.7 8.7-6 9c-1 1-6.5 9.5-7.2 11.2-.4 1-1.2 1.8-1.8 1.8-.6 0-.9.4-.6.8.3.5-.2 1.8-1.2 2.8-1 1-3.3 4.4-5.2 7.4-1.9 3-3.7 5.7-4 6-.3.3-1.6 2.2-2.9 4.3-1.3 2.1-2.8 4.3-3.5 5-.7.6-1.4 1.6-1.6 2.2-.4 1.1-7.2 11.7-8 12.5-.4.3-1.6 2.2-2.9 4.3-1.3 2.1-3 4.5-3.9 5.4-1 .9-1.5 1.7-1.2 1.7.6.1-6.1 9.9-7.4 10.8-.6.4-.8.8-.4.8s-1.5 3.3-4.3 7.2c-2.7 4-5.4 8-5.9 8.8-.6.8-5.5 8.2-11 16.4s-10 15.2-10 15.6c0 .3-.8 1.5-1.8 2.6-.9 1-3.3 4.4-5.2 7.4-1.9 3-3.8 5.9-4.3 6.5-2 2.6-20.7 30.9-20.7 31.5 0 .3-.8 1.5-1.7 2.6-1 1-4.7 6.4-8.3 11.9-3.6 5.5-6.8 10.1-7.2 10.3-.5.2-.8 1-.8 1.7s-.3 1.5-.7 1.7c-.7.3-12.3 17.2-13.2 19.1-.2.5-2.5 4.1-5.2 8-2.7 4-5.4 7.9-5.9 8.7-.6.8-5.5 8.2-11 16.4s-10 15.2-10 15.6c0 .3-.8 1.5-1.8 2.6-.9 1-3.3 4.4-5.2 7.4-1.9 3-3.8 5.9-4.3 6.5-.4.5-6.2 9.1-12.7 19-6.6 9.9-12.3 18.4-12.7 19-.5.5-2 2.8-3.3 5-1.3 2.2-2.8 4.4-3.3 5-.4.5-6.2 9.1-12.7 19-6.6 9.9-12.3 18.4-12.7 19-.5.5-2 2.8-3.3 5-1.3 2.2-2.7 4.2-3 4.5-.3.3-2.6 3.6-5 7.5-2.5 3.8-4.9 7.5-5.5 8.2-2.7 3.3-3.1 3.9-3.4 4.8-.5 1.6-6.4 9.9-7.5 10.7-.6.4-.8.8-.4.8s-1.5 3.3-4.3 7.2c-2.7 4-5.4 8-5.9 8.8-.6.8-5.5 8.2-11 16.4s-10 15.2-10 15.6c0 .3-.8 1.5-1.8 2.6-.9 1-3.3 4.4-5.2 7.4-1.9 3-3.8 5.9-4.3 6.5-2 2.6-20.7 30.9-20.7 31.5 0 .3-.8 1.5-1.8 2.6-.9 1-2.5 3.1-3.5 4.6-1.6 2.6-1.6 2.8.6 6.1 3.4 5.3 24.3 36.6 28 42 1.7 2.7 3.7 5.6 4.2 6.5l7 10.5c3.3 4.9 6.9 10.3 8 12 1 1.8 2.4 3.7 3 4.3.5.6 1.9 2.7 3 4.7s2.3 3.7 2.7 3.7c.5 0 .8.6.8 1.4 0 .8.3 1.6.8 1.8.8.4 5.2 6.5 5.2 7.3 0 .3.5 1.1 1 1.8 2.2 2.6 16.1 23.3 16.9 25.3.5 1.1 2 3.3 3.3 5 3.5 4.4 6.8 9.2 6.8 10 0 .3 1.3 2.3 3 4.4 1.7 2.1 3 4.1 3 4.4 0 .8 3.8 6.3 5.8 8.4.6.7 1.2 1.7 1.2 2.2 0 .5.6 1.5 1.3 2.2 2.3 2.5 5.7 7.7 5.7 8.8 0 .5.3 1 .8 1 .4 0 1.8 2 3.2 4.5 1.4 2.5 2.8 4.5 3.1 4.5.4 0 1.2 1.4 1.9 3 .7 1.7 1.6 3 2.1 3s.9.6.9 1.3c0 .8.9 2.2 2 3.2s2 2.4 2 3.2c0 .7.5 1.3 1 1.3.6 0 1 .7 1 1.5s.4 1.5.9 1.5 1.1.8 1.5 1.8c.5 1.5 6 9.7 8.6 12.9.5.7 1 1.4 1 1.6 0 .3 1.9 3.3 4.3 6.7 2.3 3.4 4.7 6.9 5.2 7.8.6.9 1.8 2.5 2.8 3.6.9 1.1 1.7 2.4 1.7 2.9s1.3 2.6 3 4.7c1.6 2.1 3 4.1 3 4.4 0 .3 2.2 3.6 4.8 7.3 2.7 3.8 5.1 7.5 5.5 8.3.7 1.6 14.9 22.6 16.7 24.7.5.7 1 1.5 1 1.8 0 .8 4.4 6.9 5.3 7.3.4.2.7.8.7 1.3 0 .6.5 1.5 1.1 2.2.6.7 3.2 4.4 5.7 8.3 2.6 4 7.4 11.2 10.6 16 3.2 4.9 7.5 11.4 9.5 14.4s3.8 5.7 4.1 6c.3.3 1 1.2 1.5 2.1l4 6c1.7 2.4 3.2 4.8 3.5 5.4 1.2 2.3 6.6 10 7.3 10.3.4.2.7 1 .7 1.8s.5 1.4 1 1.4c.6 0 1 .4 1 1 0 .8 5.7 9.8 7.1 11 .3.3 1.6 2.3 2.9 4.5 1.3 2.2 2.6 4.2 2.9 4.5.4.3 1.2 1.4 1.9 2.5 4.1 6.5 8.8 13.6 11.5 17 .9 1.3 1.7 2.7 1.7 3.1 0 .4 1.8 3.1 4 6s4 5.8 4 6.4c0 .5.5 1 1 1 .6 0 1 .5 1 1.1 0 .6 1.3 2.8 3 4.9 1.6 2.1 3 4.3 3 4.9 0 .6.4 1.1.9 1.1s1.4 1.3 2.1 2.9c.6 1.6 2 3.8 3 4.8 1 1.1 2.5 3.3 3.4 4.9 1.6 2.7 5.6 8.7 7.4 10.9.4.5 1.9 2.8 3.2 5 1.3 2.2 2.8 4.1 3.2 4.3.4.2.8 1 .8 1.7s.3 1.5.8 1.7c.8.4 5.2 6.5 5.2 7.3 0 .3.5 1.1 1 1.8 2.2 2.6 16.1 23.3 16.9 25.3.5 1.1 2 3.3 3.3 5 3.5 4.4 6.8 9.2 6.8 10 0 .3 1.4 2.3 3 4.4 1.6 2.1 3 4.1 3 4.4 0 .8 3.8 6.3 5.8 8.4.6.7 1.2 1.7 1.2 2.2 0 .5.6 1.5 1.3 2.2 2.3 2.5 5.7 7.7 5.7 8.8 0 .5.3 1 .8 1 .4 0 1.8 2 3.2 4.5 1.4 2.5 2.8 4.5 3.1 4.5.4 0 1.2 1.4 1.9 3 .7 1.7 1.6 3 2.1 3s.9.5.9 1.1c0 .6 1.4 2.8 3 4.9 1.7 2.1 3 4.3 3 4.9 0 .6.4 1.1.9 1.1s1.4 1.3 2.1 3c.7 1.6 1.5 3 1.9 3 .3 0 1.7 2 3.1 4.5 1.4 2.5 2.8 4.5 3.2 4.5.5 0 .8.5.8 1 0 .9 3.5 6.5 5 8 .3.3 1 1.2 1.5 2.1.6 1 2.5 3.8 4.3 6.3 1.7 2.6 3.2 4.9 3.2 5.2 0 .5 4.1 6.6 5.1 7.4.3.3 1.6 2.3 2.9 4.5 1.3 2.2 3 4.6 3.7 5.3.7.7 1.3 1.7 1.3 2.2 0 .5.6 1.5 1.3 2.2.7.7 3.6 4.9 6.4 9.3 2.9 4.4 5.7 8.5 6.3 9.2.5.7 1.5 2.4 2.2 3.8.6 1.4 1.5 2.5 2 2.5.4 0 .8.5.8 1 0 1 3.7 6.7 5.1 8 .3.3 1.6 2.3 2.9 4.5 1.3 2.2 3 4.6 3.7 5.3.7.7 1.3 1.7 1.3 2.2 0 .5.6 1.5 1.3 2.2 1.7 1.8 7 9.9 7.9 12 .4 1 1.1 1.8 1.5 1.8 1.1 0 4-2 3-2-.5 0 .5-1.7 2.1-3.8 1.6-2 3.1-4.2 3.3-4.7.9-2.2 12.5-19.1 13.7-19.8.6-.4 1.2-1.3 1.2-1.9 0-1 4.6-8.4 6-9.8.3-.3 2.1-3 4-6s3.7-5.7 4-6c.3-.3 3.9-5.7 8-12s7.7-11.7 8-12c.7-.6 14.4-21.2 14.9-22.4.2-.4 3.4-5.3 7.2-10.8 3.8-5.4 6.9-10.1 6.9-10.4 0-.3 1.8-2.9 4-5.9 2.2-3 4-5.6 4-5.9 0-.6 6.1-9.7 7-10.6 1.1-1 7.8-11.5 7.9-12.3 0-.4.7-1.4 1.5-2.2.8-.8 2.4-3.1 3.7-5.2 1.3-2.1 2.6-4 2.9-4.3.3-.3 1.7-2.3 3-4.5s2.6-4.2 3-4.5c.3-.3 3.4-5 7-10.5s6.7-10.2 7-10.5c.3-.3 3-4.3 6-9s5.7-8.7 6-9c.3-.3 2.1-3 4-6s3.9-6 4.5-6.7c2.6-3.1 3.1-3.9 3.3-4.6.3-1.2 7.5-12 9.5-14.1.9-1.1 1.7-2.5 1.7-3.2 0-.7.8-1.8 1.8-2.3.9-.6 1.3-1.1.9-1.1s1.1-2.5 3.3-5.5c2.2-3 4-5.7 4-6 0-.3 1.8-3 4-6s3.8-5.5 3.5-5.5c-.4 0 0-.7.7-1.5 2.3-2.5 3.3-3.9 6.8-9.5 1.9-3 3.7-5.7 4-6 .3-.3 3-4.3 6-9s5.7-8.7 6-9c.4-.3 1.7-2.3 3-4.5s2.6-4.2 3-4.5c.3-.3 3-4.3 6-8.9 3-4.6 6.1-9 6.8-9.8.7-.7 1.1-1.3.8-1.3-.3 0 1.7-3.3 4.5-7.3 2.7-3.9 5.4-7.9 5.9-8.7.6-.8 5.5-8.2 11-16.4s10-15.2 10-15.6c0-.3.8-1.5 1.8-2.6 1.8-2 11.4-16.2 12.1-17.9.2-.6 2.1-3.3 4.3-6.2 2.1-2.9 3.8-5.5 3.8-5.8 0-.3 1.2-2.3 2.8-4.4 1.5-2.1 3.3-4.7 3.9-5.7.7-1.1 3.1-4.5 5.3-7.7 2.2-3.2 4-6 4-6.3 0-.3 1.8-2.9 4-5.9 2.2-3 4-5.7 4-6 0-.3 1.8-3 4-6s4-5.8 4-6.3c0-.4.8-1.7 1.8-2.8.9-1 3.3-4.4 5.2-7.4 1.9-3 3.7-5.7 4-6 .3-.3 3-4.3 6-9s5.7-8.7 6-9c.3-.3 2.1-3 4-6s3.9-6 4.5-6.7c.5-.7 1.6-1.9 2.3-2.8.7-.8 1-1.5.7-1.5-.3 0 1.3-2.5 3.5-5.5s4-5.6 4-5.9c0-.4 8.8-13.7 10.7-16.1.4-.6 4.6-6.9 9.3-14 4.7-7.2 8.7-13.2 9-13.5 1.2-1.1 8.4-12.5 8.2-12.8-.2-.2.6-1.2 1.8-2.2 1.2-1 2.1-2.1 2.1-2.4-.1-.8 6.9-11.6 9.2-14 .9-1.1 1.7-2.6 1.7-3.3 0-.8.7-1.6 1.5-1.9.8-.4 1.3-.9 1-1.4-.2-.4.3-1.6 1.3-2.6s3.3-4.4 5.2-7.4c1.9-3 3.7-5.7 4-6 .3-.3 3-4.3 6-9s5.7-8.7 6-9c.4-.3 1.7-2.3 3-4.5s2.6-4.2 2.9-4.5c1.5-1.3 12.5-18.6 12.3-19.3-.1-.4.2-.7.7-.7.9 0 4.8-5.8 6.3-9.3.4-.9 1.2-1.7 1.8-1.7.5 0 .9-.3.8-.8-.2-.7 7.1-12.3 8.4-13.3.5-.3-.7-2.7-2.5-5.5-1.9-2.7-4.7-6.9-6.3-9.4-1.6-2.5-3.1-4.7-3.4-5-1.3-1.3-7-10.1-7-10.8 0-.5-.8-1.7-1.7-2.8-3-3.4-6.3-8.3-6.3-9.4 0-.5-.3-1-.8-1-.4 0-1.8-2-3.2-4.5-1.4-2.5-2.8-4.5-3.2-4.5-.5 0-.8-.4-.8-1 0-.5-2.1-4-4.8-7.7-2.6-3.8-5.3-8-6.1-9.6-.8-1.5-1.8-2.7-2.3-2.7-.4 0-.8-.5-.8-1 0-.6-.5-1.6-1-2.3-.6-.7-3.4-4.8-6.3-9.2-2.8-4.4-5.5-8.2-5.9-8.3-.5-.2-.8-1-.8-1.8s-.4-1.4-1-1.4c-.5 0-1-.5-1-1.1 0-.6-1.3-2.8-3-4.9-1.6-2.1-3-4.1-3-4.4 0-.6-3.8-6.4-5-7.6-1.3-1.3-7-10.2-7-10.9 0-.4-.9-1.6-2-2.6s-2-2.2-2-2.8c0-.5-1.3-2.6-3-4.7-1.6-2.1-3-4-3-4.4 0-.6-6-9.5-7.7-11.3-.6-.7-1.5-2.2-1.8-3.3-.3-1.1-1.1-2-1.6-2s-.9-.4-.9-.9c0-.4-2.8-5-6.2-10-3.5-5.1-6.7-10-7.3-10.9-.5-.9-2.2-3.3-3.7-5.3-1.6-2-2.8-4-2.8-4.5 0-.4-1.8-3.1-4-6s-4-5.8-4-6.4c0-.5-.4-1-1-1-.5 0-1-.4-1-1 0-.7-4.8-8.2-8.7-13.6-.8-1-1.9-2.7-5.3-7.9-1-1.7-2.4-3.5-2.9-4.2-.6-.7-1.1-1.6-1.1-2.1 0-.4-.8-1.7-1.8-2.8-.9-1-3.3-4.4-5.2-7.4-1.9-3-3.8-5.7-4.2-5.8-.5-.2-.8-1-.8-1.8s-.3-1.4-.8-1.4c-.4 0-1.6-1.7-2.7-3.7s-2.5-4.1-3-4.7c-.6-.6-2.2-2.9-3.5-5.1-1.3-2.2-3-4.6-3.7-5.3-.7-.7-1.3-1.7-1.3-2.2 0-.5-.6-1.5-1.3-2.2-.7-.7-2.4-3.1-3.7-5.3-1.3-2.2-2.7-4.2-3-4.5-.3-.3-2.1-3-4-6s-3.8-5.7-4.2-5.8c-.5-.2-.8-1-.8-1.7s-.3-1.5-.7-1.7c-.5-.2-2.5-2.9-4.5-6.1-2.1-3.1-5.5-8.3-7.5-11.5-2.1-3.1-4-5.9-4.3-6.2-.3-.3-2.4-3.4-4.7-7-2.4-3.6-4.7-7-5.3-7.7-.5-.7-1-1.7-1-2.3 0-.5-.4-1-1-1-.5 0-1-.4-1-1 0-.5-1.8-3.5-4-6.7s-4.6-6.6-5.3-7.7c-.6-1-2.4-3.6-3.9-5.7-1.6-2.1-2.8-4.3-2.8-4.7 0-.5-.8-1.7-1.8-2.8-1-1-2.9-3.7-4.2-5.9-1.3-2.2-2.7-4.2-3-4.5-.3-.3-2.1-3-4-6s-3.8-5.7-4.2-5.8c-.5-.2-.8-1-.8-1.7s-.3-1.5-.8-1.7c-.4-.2-2.3-2.8-4.2-5.8-1.9-3-3.7-5.7-4-6-.3-.3-.9-1.2-1.5-2.1-.5-.9-2.3-3.6-4-6-1.6-2.4-3.2-4.9-3.5-5.4-1.2-2.3-6.6-10-7.2-10.3-.5-.2-.8-1-.8-1.8s-.4-1.4-1-1.4c-.5 0-1-.4-1-1 0-.8-5.7-9.8-7.1-11-.3-.3-1.6-2.3-2.9-4.5-1.3-2.2-2.6-4.2-2.9-4.5-.4-.3-1-1.2-1.6-2.1-.5-1-2.5-3.8-4.2-6.3-1.8-2.6-3.3-5-3.3-5.3 0-.3-1.3-2.2-3-4.3-1.6-2.1-3-4.1-3-4.6 0-.4-1.8-3.1-4-6s-4-5.8-4-6.4c0-.5-.4-1-1-1-.5 0-1-.6-1-1.3 0-.8-.9-2.2-2-3.2s-2-2.4-2-3.2c0-.7-.4-1.3-1-1.3-.5 0-1-.7-1-1.5s-.3-1.5-.8-1.5c-.4 0-1.8-2-3.1-4.5s-2.8-4.5-3.2-4.5c-.5 0-.9-.7-.9-1.5s-.3-1.5-.8-1.5c-.4 0-1.6-1.6-2.6-3.5-1.1-1.9-2.3-3.5-2.8-3.5-.4 0-.8-.6-.8-1.4 0-.8-2-4.1-4.5-7.5-2.5-3.4-4.5-6.6-4.5-7.1 0-.6-.4-1-1-1-.5 0-1-.5-1-1 0-1-3.7-6.7-5.1-8-.3-.3-1.6-2.3-2.9-4.5-1.3-2.2-3-4.6-3.7-5.3-.7-.7-1.3-1.7-1.3-2.2 0-.5-.6-1.5-1.3-2.2-.7-.7-2.4-3.1-3.7-5.3-1.3-2.2-2.9-4.5-3.5-5.1-.5-.7-2.2-3.1-3.7-5.5-4.5-7.2-5.3-8.4-5.8-8.9-.3-.3-2.1-3-4.1-6-2-3-8.1-12.1-13.5-20.3-5.4-8.1-10.3-15.5-10.9-16.4-.5-1-1.5-2.3-2.2-3-.6-.7-1.5-2.2-1.8-3.3-.3-1.1-1-2-1.5-2-.4 0-1-.8-1.4-1.8-.3-.9-1.6-3.1-2.8-4.8-2.6-3.6-23.2-34.4-28-41.9-1.8-2.8-3.5-5.2-3.8-5.5-.3-.3-1.7-2.3-3-4.5-5.6-9.5-4.8-9.6-12.6 1.8zm8.6 58c0 .7.9 2.3 2 3.5 1.2 1.2 1.7 2.2 1.3 2.2-.4 0-.3.4.3.8 1 .7 9 12.3 12.8 18.6 1 1.7 2.2 3.2 2.7 3.4.5.2.9 1 .9 1.8s.5 1.4 1 1.4c.6 0 1 .4 1 1 0 .5 2.9 5.2 6.5 10.5 3.6 5.2 6.5 9.7 6.5 10 0 .6 1.1 2.1 3.8 5 .7.8 1 1.5.5 1.5-.4 0 0 .5 1 1.1.9.5 1.7 1.7 1.7 2.4 0 .8.5 1.5 1 1.5.6 0 1 .6 1 1.4 0 .7.7 1.9 1.5 2.6.9.7 2.3 2.8 3.1 4.6.9 1.9 2 3.4 2.5 3.4s.9.7.9 1.5.5 1.5 1 1.5c.6 0 1 .6 1.1 1.2 0 .7 2 4 4.4 7.3 2.4 3.3 5.2 7.5 6.1 9.2.9 1.8 2 3.3 2.5 3.3s.9.7.9 1.5.5 1.5 1 1.5c.6 0 1 .4 1 1 0 .5 2.9 5.2 6.5 10.5 3.6 5.2 6.5 9.7 6.5 10 0 .6 1.1 2 3.8 5 .6.7 1.2 1.6 1.2 1.9 0 .9 10.4 16.1 11.2 16.4.5.2.8.8.8 1.2 0 1.1 6.1 10.3 7.4 11.2.7.5.7.8.1.8s-.6.3.1.8c.6.4 6.9 9.5 13.9 20.2 7.1 10.7 13.3 19.6 13.7 19.8.4.2.8 1 .8 1.8s.5 1.4 1 1.4c.6 0 1 .4 1 1 0 1.1 8.2 13.3 9.3 13.8.4.2.7.8.7 1.3s1.6 3.2 3.5 5.9 3.5 5.2 3.5 5.5c0 .3.9 1.6 2.1 2.8 1.1 1.2 2.7 3.7 3.6 5.4.8 1.8 1.9 3.3 2.4 3.3s.9.7.9 1.5.5 1.5 1 1.5c.6 0 1 .5 1 1 0 .9 11.4 18.4 13 20 .3.3 1.1 1.7 1.9 3.2.8 1.6 1.8 2.8 2.3 2.8.4 0 .8.4.8.9 0 .8 7.9 13.1 10.5 16.3.8 1 1.1 1.8.7 1.8-.4 0-.2.4.4.8.6.4 4.2 5.4 7.9 11.2 3.8 5.8 7.3 10.6 7.7 10.8.4.2.8 1 .8 1.7 0 .8.8 1.9 1.8 2.4.9.6 1.4 1.1 1 1.1-.4 0 2.2 4.3 5.7 9.5 3.6 5.2 6.5 9.7 6.5 10 0 .6 1.1 2 3.8 5 .6.7 1.2 1.8 1.2 2.4 0 .6.5 1.1 1 1.1.6 0 1 .6 1 1.3 0 .7 1.2 2.8 2.8 4.7 1.5 1.9 3.4 4.7 4.1 6.2.8 1.6 1.8 2.8 2.3 2.8.4 0 .8.7.8 1.5s.5 1.5 1 1.5c.6 0 1 .6 1.1 1.2 0 .7 2 4 4.4 7.3 2.4 3.3 5.2 7.5 6.1 9.2.9 1.8 2 3.3 2.5 3.3s.9.7.9 1.5.5 1.5 1 1.5c.6 0 1 .4 1 1 0 .9 9.5 15.5 12.6 19.2.7 1 1 1.8.6 1.8s-.2.4.4.8c.5.4 3.2 4.1 6 8.2 2.7 4.1 5.2 7.6 5.7 7.8.4.2.7.7.7 1.2 0 1.1 8.2 13.4 9.3 13.8.4.2.7 1 .7 1.8s.5 1.4 1.1 1.4c.5 0 .8.4.5.9-.4.5-.2 1.1.2 1.3.5.1 6.7 9.1 13.8 19.8 7 10.7 13.2 19.9 13.7 20.5.4.5 2.2 3.2 3.9 6 1.8 2.7 3.5 5.2 3.8 5.5.3.3 1.1 1.7 1.9 3.2.8 1.6 1.8 2.8 2.3 2.8.4 0 .8.5.8 1 0 .6 1.6 3.3 3.5 6s3.5 5.3 3.5 5.6c0 .4 1 1.5 2.2 2.5 1.1 1.1 1.8 1.9 1.4 1.9-.4 0 .8 2.1 2.6 4.6 1.8 2.6 4.2 6.2 5.3 8 1.1 1.8 2.8 4.3 3.8 5.4.9 1.1 1.7 2.2 1.7 2.5 0 .3 1.6 2.8 3.5 5.5s3.5 5.2 3.5 5.5c0 .6 1.1 2 3.8 5 .6.7 1.2 1.7 1.2 2 0 .7 6 9.6 7.1 10.5.3.3.8.9 1 1.5.8 2 10.3 16 11.1 16.3.4.2.8.8.8 1.3s1.6 3.2 3.5 5.9 3.5 5.2 3.5 5.5c0 .6 1.1 2 3.8 5 .6.7 1.2 1.6 1.2 1.9 0 .9 10.4 16.1 11.2 16.4.5.2.8.9.8 1.6 0 .7.9 2.2 1.9 3.3 1.9 2 1.9 2.1-6.1 13.8-4.4 6.5-8.8 13-9.7 14.5-.9 1.5-8.3 12.8-16.6 25.1l-16 24c-.5.9-3.8 5.8-7.2 10.9-3.5 5.1-6.3 9.6-6.3 10 0 .5-.4 1-.8 1.2-.4.1-6.6 9.1-13.7 19.8-7.2 10.7-13.3 19.9-13.7 20.4-.4.7-9.3 1.1-23.3 1.2l-22.7.1-1.1-2.6c-.5-1.4-1.1-2.8-1.2-3.1-.1-.3-1.9-5.9-4-12.5-2.2-6.6-3.9-12.3-4-12.7 0-.3-.3-1-.7-1.4-.5-.4-.8-1.6-.8-2.6s-.4-2.6-1-3.6c-.5-.9-3-8.2-5.6-16.2l-4.6-14.6-38.4.1H881l-.1-2.5c0-1.4-.1-45.6-.1-98.3l-.1-95.9-2.6-1.6c-4.2-2.5-20.6-13.5-21.1-14.1-.3-.3-2.1-1.5-4-2.5-1.9-1.1-3.7-2.3-4-2.6-.3-.4-5.2-3.8-11-7.6-5.8-3.7-10.7-7.1-11-7.4-.3-.3-7.9-5.4-17-11.4-9.1-6.1-16.7-11.2-17-11.5-.3-.3-1.6-1.2-3-1.9-6.9-3.6-6.3.4-6.4-46.5l-.1-42.4-2.5-2.1c-10.1-8.6-19.7-16.7-20.7-17.6-.6-.6-2.9-2.6-5-4.3l-6.3-5.4c-1.4-1.2-3.5-2.9-4.7-3.9-1.8-1.4-2.3-2.9-2.6-8.9-.2-3.9.1-7.1.6-7.1.4 0 .5-.5.1-1.1-.9-1.5-.9-21.3 0-22.8.4-.6.4-1.1-.1-1.1-.4 0-.8-5.2-.8-11.5s.4-11.5.8-11.5c.5 0 .5-.5.1-1.1-.3-.6-.7-3.2-.8-5.7-.1-4-1.1-6-6.6-14-3.6-5.1-6.9-10.2-7.5-11.3-.5-1-1.3-1.9-1.7-1.9-.5 0-.8-.7-.8-1.5s-.4-1.5-.8-1.5-2.1-2.2-3.7-5c-1.7-2.7-3.3-5-3.7-5-.4 0-1.4-1.5-2.3-3.4-.9-1.8-2.5-4.3-3.5-5.4-1.1-1.2-2-2.5-2-3.1 0-.5-.3-1.1-.7-1.3-1.2-.5-7.3-9.5-7.3-10.7 0-.6-.3-1.1-.8-1.1-.4 0-1.8-1.8-3.2-4-1.4-2.2-3-4-3.6-4-1 0-10.5 13.1-14.8 20.3-1 1.8-2.1 3.4-2.5 3.7-.4.3-2.6 3.4-5 7s-4.8 6.6-5.3 6.8c-.4.2-.8.8-.8 1.4 0 1.1-6.1 10.1-7.2 10.6-.5.2-.8.8-.8 1.2 0 .5-2.7 4.6-6 9.2l-6 8.3v72.8l-3.8 3.6c-2.1 2-7.1 6.3-11.2 9.6s-8.8 7.3-10.6 9c-1.7 1.6-6.1 5.4-9.8 8.4l-6.6 5.5v41c0 22.5.2 40.7.5 40.5.2-.3.7-2.2 1.1-4.3.5-3.7.7-4.6 1.9-9.9.3-1.2.8-3.6 1.1-5.2.3-1.7 1-5 1.5-7.5.6-2.5 1.3-5.6 1.5-7 .2-1.4.6-3.5.9-4.7.3-1.3.5-2.4.6-2.5 0-.2.4-2.1 1-4.3.5-2.2 1.2-5.4 1.5-7 .3-1.7.7-3.6.9-4.3.3-.7 1.4-5.9 2.6-11.5 1.1-5.6 2.2-10.9 2.4-11.7.2-.8.4-2 .4-2.7.1-1.1 7.8-9.6 23.9-26.1 3.9-4.1 7.2-7.6 7.2-7.7 0-.2 3.6-4 8-8.4 4.4-4.5 8-8.6 8-9.1 0-.6.7-1 1.6-1 1.1 0 1.4-.5 1-1.7-.4-1-.4-1.4 0-1.1.7.8 7-5.2 6.7-6.3-.2-.5.5-.5 1.4-.2 1.2.5 1.5.2 1-1-.4-1-.2-1.4.6-1.1.7.2 3.4-1.6 6-4 2.6-2.5 4.7-4.2 4.7-3.9 0 .3.6.1 1.3-.5.9-.8 1.2 3.1 1.1 19 0 22.7-1.2 19.6 10.6 28.8 3.6 2.8 7.2 5.6 8 6.3.8.7 3.3 2.6 5.5 4.2 2.2 1.7 4.6 3.5 5.5 4.2.8.7 7.8 6.1 15.5 12.1l14 10.8.2 25.7c.1 14.1-.1 25.7-.3 25.7-.5 0-6.6-4.2-7.4-5.1-.3-.3-1.2-.8-2-1.2-2-.9-5.4-3-6-3.8-.3-.3-6.3-4.5-13.5-9.2-7.1-4.8-16.6-11.1-21-14.1-4.4-3.1-8.3-5.5-8.6-5.6-.3 0-.5 87.4-.4 194.2 0 106.9-.1 195-.3 195.9-.3 1.4-4.3 1.6-37.3 1.5-20.3-.1-36.9.2-36.9.5s-2 .3-4.4-.1c-2.4-.3-5.3-.3-6.4.1-1.2.5-2.4.4-2.7-.1-.5-.8-5-.4-6.6.6-.4.2-1 .1-1.3-.4-.5-.8-12.1-.6-14.3.3-.7.2-1.3 0-1.3-.5 0-.6-.9-.6-2.5 0-1.5.6-2.7.6-3 0-.3-.5-1.2-.7-2-.4-2.2.9-12.6 1-13.1.2-.3-.4-1.1-.5-1.9-.2-2.3.9-12.5 1-12.5.1 0-.5-.5-.5-1.2-.1-.6.4-42.3.8-92.5.9l-91.4.2-1.7-2.9c-.9-1.5-2-2.8-2.4-2.8-.4 0-.8-.6-.8-1.3 0-.7-.8-2.2-1.8-3.3-.9-1-2.3-3.1-3.1-4.7-.8-1.5-1.8-2.7-2.3-2.7-.4 0-.8-.5-.8-1 0-.6-1.6-3.3-3.5-6s-3.5-5.2-3.5-5.6c0-.3-.6-1.2-1.3-1.9-2.6-3-3.7-4.4-3.7-4.9 0-.9-10.4-16.1-11.2-16.4-.5-.2-.8-.9-.8-1.6 0-.7-.8-2.1-1.7-3.2-2.4-2.7-4.2-5.5-4.9-7.7-.4-.9-1-1.7-1.5-1.7-.4 0-1.5-1.5-2.4-3.4-.9-1.8-2.5-4.3-3.5-5.4-1.1-1.2-2-2.6-2-3.2 0-.5-.3-1-.8-1-.4 0-1.3-1.3-2-2.8-.6-1.6-2.1-3.8-3.2-5-1.1-1.2-2-2.4-2-2.7 0-.3-1.6-2.8-3.5-5.5s-3.5-5.2-3.5-5.5c0-.6-1.1-2-3.8-5-.6-.7-1.2-1.7-1.3-2.2 0-.4-1.6-2.8-3.4-5.3-1.9-2.5-4.2-6-5.1-7.8-.9-1.7-2-3.2-2.5-3.2s-.9-.7-.9-1.5-.4-1.5-1-1.5c-.5 0-1-.5-1-1 0-.6-1.6-3.3-3.5-6.1l-3.4-5.1 2.2-3.1c1.2-1.8 2.7-3.5 3.2-3.9.6-.4.7-.8.3-.8-.4 0-.1-.8.7-1.8.8-.9 5.2-7.6 9.9-14.7 4.7-7.2 8.9-13.5 9.4-14 .4-.6 3-4.4 5.7-8.5 2.6-4.1 5.3-7.8 5.9-8.2.7-.5.7-.8.1-.8s-.6-.3.1-.8c.5-.4 5.1-7 10.2-14.7 5.1-7.7 9.6-14.5 10-15 .5-.6 2.5-3.6 4.6-6.9 2-3.2 4.1-6.3 4.7-6.9.5-.7 5.6-8.4 11.4-17.2 5.7-8.8 10.8-16.5 11.3-17 .4-.6 3-4.4 5.7-8.5 2.6-4.1 5.3-7.8 5.9-8.2.6-.4.8-.8.4-.8s-.1-.8.7-1.8c.8-.9 4.3-6.2 7.9-11.7 3.6-5.5 7.2-10.9 8-12 .9-1.1 4.4-6.3 7.8-11.5 3.4-5.2 6.6-9.7 7-9.8.5-.2.6-.8.2-1.3-.3-.5-.1-.9.3-.9.5 0 2.2-2.3 3.8-5 1.6-2.8 3.3-5 3.8-5 .4 0 .6-.4.3-.9-.4-.5-.3-1.1.2-1.3.4-.1 3.1-3.9 6-8.3s5.9-8.9 6.6-10c.8-1.1 8-11.9 16-24s15-22.5 15.4-23c.5-.6 2.5-3.6 4.6-6.9 2-3.2 4.1-6.3 4.7-6.9.5-.7 5.6-8.4 11.4-17.2 5.7-8.8 10.8-16.5 11.3-17 .4-.6 10.2-15.2 21.7-32.5s21.3-31.7 21.7-31.8c.4-.2.8-.7.8-1.2 0-.7 120.1-181.4 124.8-187.8.9-1.3 9.8-14.6 19.7-29.7C690.8 69.7 695 64.3 695 68.3zm-17.2 270.1c0 4 .2 7.8.6 8.5.4.6.4 1.1-.1 1.1-.4 0-.7 2.6-.5 5.8.3 4.2-.1 6.3-1.1 7.3-3.7 3.6-8.6 7.8-10.9 9.3l-2.5 1.6.1-13.7.1-13.6 7-6.9c3.9-3.7 7.1-6.8 7.2-6.8.1 0 .2 3.3.1 7.4zm36.9 1l6.3 5.9v13.4c0 7.3-.3 13.3-.7 13.3-.5 0-2.8-1.9-5.3-4.1-2.5-2.2-5.5-4.7-6.6-5.5-2-1.4-2.1-2.4-2.2-16-.1-11 .1-14.3 1.1-13.7.6.4 4 3.4 7.4 6.7zm30.6 205c1.6 1 1.7 3.6 1.7 30.3v29.2l-8.5-3.8c-4.7-2.1-8.8-4.1-9.3-4.5-.4-.4-.7-14.2-.7-30.7l-.1-29.8 7.6 4.1c4.1 2.3 8.3 4.6 9.3 5.2zm48.2 27.6c1.7.8 3.3 1.9 3.7 2.4.8 1.2.8 52.7 0 52.2-2.1-1.2-10.9-5-12.1-5.2-.8-.2-1.7-.7-2-1.2-.5-.8-.7-50.3-.2-53.5 0-.4 1.8.3 3.9 1.6 2 1.2 5.1 2.9 6.7 3.7zm40.8 22.4c1.9 1.3 4.3 2.7 5.3 3 1.8.5 1.9 2 1.8 24.3-.1 26.9.5 25.3-8.2 20.9l-4.4-2.2.1-18.7c0-29.3.1-29.7 1-29.7.4 0 2.4 1.1 4.4 2.4zM732 654.7c.4 0 4.7 1.4 12 4.1.8.3 1.8.4 2.3.4.4-.1.7 13.1.7 29.3v29.4l-3.2-.5c-1.8-.3-4.4-1-5.8-1.5-1.4-.4-3.7-1-5.2-1.2-1.5-.1-3.1-.6-3.5-1.1-.4-.4-.8-14.2-.8-30.6 0-26.4.1-29.7 1.5-29 .8.4 1.7.8 2 .7zm59.7 20.8l6.1 2v26.2c0 14.5-.3 26.3-.6 26.3-.4 0-2.5-.5-4.7-1.1-2.2-.5-5.1-1.2-6.5-1.5-1.3-.3-2.7-.7-3-1-.6-.6-.8-50.4-.2-52.2.3-.7 1-1.1 1.6-1 .6.2 3.9 1.2 7.3 2.3zm49.5 18.3c.1.9.3 11.6.3 23.7-.1 24.5.5 22.7-7 21-1.6-.3-3.6-.7-4.2-.7-.7-.1-1.3-1.1-1.4-2.2v-42.3l.1-5.2 5.9 2c3.7 1.3 6 2.7 6.3 3.7zm-99.5 87.5l5.3.2V840l-3.7.1c-7.4.2-13.6-.1-14.2-.7-.6-.6-1-57.4-.4-58.6.2-.4 2-.5 4.1-.2 2 .3 6.1.6 8.9.7zm48.3 5.4c8.3.6 7.5-2.2 7.6 27.1l.1 26.2-3.6.1c-2 0-5.1.1-6.9.2-1.9.1-3.7-.2-4-.8-1-1.6-.9-51.9.1-53.2.5-.7 1.4-1 2-.6.6.4 2.7.8 4.7 1zm50.5 5.3c1.1 0 1.3 46.5.2 47.7-.7.7-10.8.5-11.5-.2-.3-.3-.5-32.6-.3-45.4l.1-3.3 5.3.6c2.8.3 5.7.6 6.2.6z"/><path d="M685.5 399.7c-3.8 3-7.1 5.9-7.3 6.4-.2.5-.8.9-1.4.9-.5 0-3.3 1.9-6.3 4.2-8.1 6.5-9.1 7.3-21.8 17.1-6.6 5.1-12.6 9.7-13.4 10.4-1.3 1-1.5 4.7-1.5 23.2 0 12.1.3 22.5.7 23 .3.6.3 1.1-.2 1.1-.4 0-.8 1.1-.8 2.5s.2 2.5.4 2.5c.5 0 7.5-4.3 8.1-5 .3-.3 5.9-4.1 12.5-8.5 6.6-4.3 12.2-8.2 12.3-8.7.2-.4.9-.8 1.6-.8.7 0 2.1-.8 3.2-1.8 2.3-1.9 5.2-3.9 7.4-4.9.8-.4 2-1.2 2.7-1.8.6-.7 3.4-2.6 6.2-4.4 2.8-1.8 5.1-3.6 5.2-4 .4-2.6.3-57.1-.1-57-.3 0-3.6 2.5-7.5 5.6zm-37 140.6l-9 5.2-.1 28.5c0 15.7.1 28.8.3 29.2.2.3 4.4-1.2 9.3-3.5l9-4.1v-30.3c0-16.7-.1-30.3-.2-30.3-.2.1-4.3 2.4-9.3 5.3zm-89.2 3.2c-2.9 1.9-5.5 3.5-5.8 3.5-.3 0-1.1.5-1.8 1-1.4 1.2-13.8 9.4-25.7 16.9-4.7 3-8.7 5.7-9 6-.7.9-4.2 3-6.5 4-1.2.5-2.6 1.5-3.2 2.2-1.2 1.5-1.6 189.9-.4 189.9.3 0 .6-1.9.7-4.3.1-4.1 1-15.2 2-22.9.2-2.1.6-6.3.9-9.5.3-3.2.7-7.2.9-8.9.3-1.7.8-6.4 1.1-10.5.8-8.7 1.3-14.6 2-21.4.3-2.8.7-7 .9-9.5.3-2.5.5-4.5.6-4.5 0 0 .3-2.3.5-5 .8-9.5 2.3-25.5 3.1-32.9.2-2.2.6-6.6.9-9.6.3-3 .7-7.3.9-9.5.3-2.2.8-7.2 1.1-11 1.2-12.9-.2-9.8 12.8-27.5 18.8-25.4 21.2-28.5 22-28.8.4-.2.7-1 .7-1.7s.4-1.5.8-1.7c.9-.3 6.7-7.8 6.1-7.8-.3 0-2.8 1.6-5.6 3.5zm39.7 25c-1.9 1.3-4 2.4-4.6 2.4-.6.1-2 .9-3.2 1.9-1.9 1.7-2 2.8-2.1 27.5 0 14.1.2 25.7.5 25.7.2 0 3.7-1.4 7.7-3l7.2-3.1V613c0-3.9-.4-7-.8-7-.5 0-.5-.5-.1-1.1 1-1.6 1.3-9.9.3-9.3-.5.3-.6-.1-.4-.8 1-2.4 1.1-12.8.3-12.8-.5 0-.5-.8.1-1.7.6-1.1.6-2.4 0-3.5-.5-.9-.6-1.9-.2-2.1 1.1-.7.9-8-.2-8.3-.6-.2-2.6.8-4.5 2.1z"/><path d="M554.3 593.2c-1.3.6-2.3 1.5-2.3 2s-.4.7-.9.4c-.5-.3-2 .3-3.2 1.3-2.4 1.9-2.4 2-2.5 25.1 0 12.7.3 23.3.6 23.5.4.2 3.1-.8 6.1-2.3l5.4-2.7.3-24.3c.1-13.3-.1-24.2-.5-24.1-.5 0-1.8.5-3 1.1zm95.7 62.9c-2.5.9-5.2 1.8-6 2.2-.8.3-2.2.7-3 1-1.3.3-1.5 4.5-1.6 29.5V718l3-.6c1.7-.3 5.9-1.2 9.4-2.1l6.2-1.5v-29.9c0-33.5.7-30.9-8-27.8zm-53.7 18.6l-7.1 2.6v25.8c-.1 25.4 0 26.4 2.9 26.1.4-.1 1.9-.4 3.5-.8 1.6-.3 4.1-.8 5.7-1.1 1.5-.3 2.7-.8 2.8-1.2.4-5.2.2-12.1-.4-12.1-.5 0-.5-.5-.1-1.2 1-1.6 1.1-26.8.1-26.8-.5 0-.5-.5-.1-1.1.9-1.6 1.3-10 .4-9.4-.5.3-.6-.4-.3-1.5s.4-2 .2-1.9c-.2 0-3.6 1.2-7.6 2.6zm-44.9 15.5l-6.1 2.1.1 23.6c.1 22.9.2 23.6 2.1 23.5 2.8-.2 8.7-1.4 9.6-2 .7-.4 1.2-49.6.6-49.3-.1 0-2.9 1-6.3 2.1zM434.2 774c-3.4.3-6.2.8-6.1 1.3 0 .4-.9 3.8-2.1 7.5-1.2 3.7-2.3 7.1-2.5 7.7-.1.5-.5 1.7-.8 2.5-.3.8-1.4 4-2.3 7-.9 3-2.1 6.1-2.7 6.7-.5.7-.7 1.3-.3 1.3.4 0 0 1.3-.9 3-.8 1.6-1.5 3.1-1.4 3.2 0 .2-.7 3-1.7 6.3s-1.9 6.4-2 7c-.2.5-1.2 3.7-2.4 6.9-1.1 3.3-1.9 6.1-1.7 6.3.3.2 11.1-20.2 17.1-32.4 1-2.1 2.3-4.1 2.8-4.4.5-.3.8-.9.6-1.1-.1-.3 1.5-3.9 3.7-8.1l4-7.6 6.5-1.2c3.6-.6 7.4-1.3 8.5-1.5 1.1-.3 3.4-.6 5-.9 3.3-.6 6.6-1.2 10.5-2.1 1.4-.3 3.9-.7 5.5-1 1.7-.3 6.2-1.1 10-1.9 8.1-1.6 14.2-2.6 16.9-2.9 3.7-.4 2.6-2.1-1.1-1.9-2.1.1-4 .2-4.3.3-.3.2-.8.2-1.3.1-1.4-.2-23.2-.3-24.2-.1-.5.1-1.4.2-2 .1-2.5-.5-21.7-.2-22.2.3-.4.3-1.1.2-1.7-.2-.6-.4-3.9-.5-7.4-.2zm212.8 7.2c-3 .3-5.8.5-6.1.2-1.4-.8-1.6 2.8-1.5 30.6l.1 28.5h2.5c1.4 0 4-.3 5.8-.6 1.7-.4 3.2-.4 3.2 0s1.6.5 3.5.3l3.5-.4v-59.6l-2.7.2c-1.6 0-5.3.4-8.3.8zm-45.4 4.5c-.4.4-1.7.8-2.9.9-1.2.1-3.8.3-5.9.5l-3.6.3v26.2l-.1 26.2 6 .4c3.3.1 6.7 0 7.6-.3 1.7-.6 2.6-5.9 1-5.9-.4 0-.6-.4-.2-.9 1-1.7 1.3-7.1.3-7.1-.5 0-.6-.5-.2-1.2 1-1.6 1.1-14.8.1-14.8-.5 0-.5-.5-.1-1.2s.7-5.9.7-11.6c-.1-9.7-.9-13.3-2.7-11.5zm-53.3 6.1c-1.3.2-2.4.6-2.5 1-.6 2.8-.3 46.4.4 46.8.4.3 2.7.6 5 .7 4.4.3 8.5-2.3 7.2-4.4-.3-.6-.6-10.9-.5-23l.1-21.9-3.7.2c-2.1.2-4.8.4-6 .6z"/></svg>