<?xml version="1.0" standalone="no"?>
<!DOCTYPE svg PUBLIC "-//W3C//DTD SVG 20010904//EN"
 "http://www.w3.org/TR/2001/REC-SVG-20010904/DTD/svg10.dtd">
<svg version="1.0" xmlns="http://www.w3.org/2000/svg"
 width="1408.000000pt" height="1408.000000pt" viewBox="0 0 1408.000000 1408.000000"
 preserveAspectRatio="xMidYMid meet">
<metadata>
Created by potrace 1.14, written by Peter Selinger 2001-2017
</metadata>
<g transform="translate(0.000000,1408.000000) scale(0.100000,-0.100000)"
fill="#000000" stroke="none">
<path d="M6864 13977 c-38 -56 -75 -113 -82 -127 -7 -13 -16 -27 -20 -30 -11
-8 -106 -155 -103 -159 2 -2 -1 -7 -6 -10 -13 -9 -83 -110 -83 -119 0 -5 -8
-17 -18 -28 -9 -10 -33 -44 -52 -74 -19 -30 -37 -57 -40 -60 -3 -3 -30 -43
-60 -90 -30 -47 -57 -87 -60 -90 -3 -3 -21 -30 -40 -60 -19 -30 -39 -60 -45
-67 -5 -7 -16 -19 -23 -28 -7 -8 -10 -15 -7 -15 3 0 -13 -25 -35 -55 -22 -30
-40 -56 -40 -59 0 -3 -31 -50 -70 -106 -38 -56 -70 -103 -70 -106 0 -3 -18
-29 -40 -59 -22 -30 -38 -55 -35 -55 4 0 0 -7 -7 -15 -23 -25 -33 -39 -68 -95
-19 -30 -37 -57 -40 -60 -3 -3 -30 -43 -60 -90 -30 -47 -57 -87 -60 -90 -10
-10 -65 -95 -72 -112 -4 -10 -12 -18 -18 -18 -6 0 -9 -4 -6 -8 3 -5 -2 -18
-12 -28 -10 -10 -33 -44 -52 -74 -19 -30 -37 -57 -40 -60 -3 -3 -16 -22 -29
-43 -13 -21 -28 -43 -35 -50 -7 -6 -14 -16 -16 -22 -4 -11 -72 -117 -80 -125
-4 -3 -16 -22 -29 -43 -13 -21 -30 -45 -39 -54 -10 -9 -15 -17 -12 -17 6 -1
-61 -99 -74 -108 -6 -4 -8 -8 -4 -8 4 0 -15 -33 -43 -72 -27 -40 -54 -80 -59
-88 -6 -8 -55 -82 -110 -164 -55 -82 -100 -152 -100 -156 0 -3 -8 -15 -18 -26
-9 -10 -33 -44 -52 -74 -19 -30 -38 -59 -43 -65 -20 -26 -207 -309 -207 -315
0 -3 -8 -15 -17 -26 -10 -10 -47 -64 -83 -119 -36 -55 -68 -101 -72 -103 -5
-2 -8 -10 -8 -17 0 -7 -3 -15 -7 -17 -7 -3 -123 -172 -132 -191 -2 -5 -25 -41
-52 -80 -27 -40 -54 -79 -59 -87 -6 -8 -55 -82 -110 -164 -55 -82 -100 -152
-100 -156 0 -3 -8 -15 -18 -26 -9 -10 -33 -44 -52 -74 -19 -30 -38 -59 -43
-65 -4 -5 -62 -91 -127 -190 -66 -99 -123 -184 -127 -190 -5 -5 -20 -28 -33
-50 -13 -22 -28 -44 -33 -50 -4 -5 -62 -91 -127 -190 -66 -99 -123 -184 -127
-190 -5 -5 -20 -28 -33 -50 -13 -22 -27 -42 -30 -45 -3 -3 -26 -36 -50 -75
-25 -38 -49 -75 -55 -82 -27 -33 -31 -39 -34 -48 -5 -16 -64 -99 -75 -107 -6
-4 -8 -8 -4 -8 4 0 -15 -33 -43 -72 -27 -40 -54 -80 -59 -88 -6 -8 -55 -82
-110 -164 -55 -82 -100 -152 -100 -156 0 -3 -8 -15 -18 -26 -9 -10 -33 -44
-52 -74 -19 -30 -38 -59 -43 -65 -20 -26 -207 -309 -207 -315 0 -3 -8 -15 -18
-26 -9 -10 -25 -31 -35 -46 -16 -26 -16 -28 6 -61 34 -53 243 -366 280 -420
17 -27 37 -56 42 -65 6 -9 38 -57 70 -105 33 -49 69 -103 80 -120 10 -18 24
-37 30 -43 5 -6 19 -27 30 -47 11 -20 23 -37 27 -37 5 0 8 -6 8 -14 0 -8 3
-16 8 -18 8 -4 52 -65 52 -73 0 -3 5 -11 10 -18 22 -26 161 -233 169 -253 5
-11 20 -33 33 -50 35 -44 68 -92 68 -100 0 -3 13 -23 30 -44 17 -21 30 -41 30
-44 0 -8 38 -63 58 -84 6 -7 12 -17 12 -22 0 -5 6 -15 13 -22 23 -25 57 -77
57 -88 0 -5 3 -10 8 -10 4 0 18 -20 32 -45 14 -25 28 -45 31 -45 4 0 12 -14
19 -30 7 -17 16 -30 21 -30 5 0 9 -6 9 -13 0 -8 9 -22 20 -32 11 -10 20 -24
20 -32 0 -7 5 -13 10 -13 6 0 10 -7 10 -15 0 -8 4 -15 9 -15 5 0 11 -8 15 -18
5 -15 60 -97 86 -129 5 -7 10 -14 10 -16 0 -3 19 -33 43 -67 23 -34 47 -69 52
-78 6 -9 18 -25 28 -36 9 -11 17 -24 17 -29 0 -5 13 -26 30 -47 16 -21 30 -41
30 -44 0 -3 22 -36 48 -73 27 -38 51 -75 55 -83 7 -16 149 -226 167 -247 5 -7
10 -15 10 -18 0 -8 44 -69 53 -73 4 -2 7 -8 7 -13 0 -6 5 -15 11 -22 6 -7 32
-44 57 -83 26 -40 74 -112 106 -160 32 -49 75 -114 95 -144 20 -30 38 -57 41
-60 3 -3 10 -12 15 -21 6 -9 24 -36 40 -60 17 -24 32 -48 35 -54 12 -23 66
-100 73 -103 4 -2 7 -10 7 -18 0 -8 5 -14 10 -14 6 0 10 -4 10 -10 0 -8 57
-98 71 -110 3 -3 16 -23 29 -45 13 -22 26 -42 29 -45 4 -3 12 -14 19 -25 41
-65 88 -136 115 -170 9 -13 17 -27 17 -31 0 -4 18 -31 40 -60 22 -29 40 -58
40 -64 0 -5 5 -10 10 -10 6 0 10 -5 10 -11 0 -6 13 -28 30 -49 16 -21 30 -43
30 -49 0 -6 4 -11 9 -11 5 0 14 -13 21 -29 6 -16 20 -38 30 -48 10 -11 25 -33
34 -49 16 -27 56 -87 74 -109 4 -5 19 -28 32 -50 13 -22 28 -41 32 -43 4 -2 8
-10 8 -17 0 -7 3 -15 8 -17 8 -4 52 -65 52 -73 0 -3 5 -11 10 -18 22 -26 161
-233 169 -253 5 -11 20 -33 33 -50 35 -44 68 -92 68 -100 0 -3 14 -23 30 -44
16 -21 30 -41 30 -44 0 -8 38 -63 58 -84 6 -7 12 -17 12 -22 0 -5 6 -15 13
-22 23 -25 57 -77 57 -88 0 -5 3 -10 8 -10 4 0 18 -20 32 -45 14 -25 28 -45
31 -45 4 0 12 -14 19 -30 7 -17 16 -30 21 -30 5 0 9 -5 9 -11 0 -6 14 -28 30
-49 17 -21 30 -43 30 -49 0 -6 4 -11 9 -11 5 0 14 -13 21 -30 7 -16 15 -30 19
-30 3 0 17 -20 31 -45 14 -25 28 -45 32 -45 5 0 8 -5 8 -10 0 -9 35 -65 50
-80 3 -3 10 -12 15 -21 6 -10 25 -38 43 -63 17 -26 32 -49 32 -52 0 -5 41 -66
51 -74 3 -3 16 -23 29 -45 13 -22 30 -46 37 -53 7 -7 13 -17 13 -22 0 -5 6
-15 13 -22 7 -7 36 -49 64 -93 29 -44 57 -85 63 -92 5 -7 15 -24 22 -38 6 -14
15 -25 20 -25 4 0 8 -5 8 -10 0 -10 37 -67 51 -80 3 -3 16 -23 29 -45 13 -22
30 -46 37 -53 7 -7 13 -17 13 -22 0 -5 6 -15 13 -22 17 -18 70 -99 79 -120 4
-10 11 -18 15 -18 11 0 40 20 30 20 -5 0 5 17 21 38 16 20 31 42 33 47 9 22
125 191 137 198 6 4 12 13 12 19 0 10 46 84 60 98 3 3 21 30 40 60 19 30 37
57 40 60 3 3 39 57 80 120 41 63 77 117 80 120 7 6 144 212 149 224 2 4 34 53
72 108 38 54 69 101 69 104 0 3 18 29 40 59 22 30 40 56 40 59 0 6 61 97 70
106 11 10 78 115 79 123 0 4 7 14 15 22 8 8 24 31 37 52 13 21 26 40 29 43 3
3 17 23 30 45 13 22 26 42 30 45 3 3 34 50 70 105 36 55 67 102 70 105 3 3 30
43 60 90 30 47 57 87 60 90 3 3 21 30 40 60 19 30 39 60 45 67 26 31 31 39 33
46 3 12 75 120 95 141 9 11 17 25 17 32 0 7 8 18 18 23 9 6 13 11 9 11 -4 0
11 25 33 55 22 30 40 57 40 60 0 3 18 30 40 60 22 30 38 55 35 55 -4 0 0 7 7
15 23 25 33 39 68 95 19 30 37 57 40 60 3 3 30 43 60 90 30 47 57 87 60 90 4
3 17 23 30 45 13 22 26 42 30 45 3 3 30 43 60 89 30 46 61 90 68 98 7 7 11 13
8 13 -3 0 17 33 45 73 27 39 54 79 59 87 6 8 55 82 110 164 55 82 100 152 100
156 0 3 8 15 18 26 18 20 114 162 121 179 2 6 21 33 43 62 21 29 38 55 38 58
0 3 12 23 28 44 15 21 33 47 39 57 7 11 31 45 53 77 22 32 40 60 40 63 0 3 18
29 40 59 22 30 40 57 40 60 0 3 18 30 40 60 22 30 40 58 40 63 0 4 8 17 18 28
9 10 33 44 52 74 19 30 37 57 40 60 3 3 30 43 60 90 30 47 57 87 60 90 3 3 21
30 40 60 19 30 39 60 45 67 5 7 16 19 23 28 7 8 10 15 7 15 -3 0 13 25 35 55
22 30 40 56 40 59 0 4 88 137 107 161 4 6 46 69 93 140 47 72 87 132 90 135
12 11 84 125 82 128 -2 2 6 12 18 22 12 10 21 21 21 24 -1 8 69 116 92 140 9
11 17 26 17 33 0 8 7 16 15 19 8 4 13 9 10 14 -2 4 3 16 13 26 10 10 33 44 52
74 19 30 37 57 40 60 3 3 30 43 60 90 30 47 57 87 60 90 4 3 17 23 30 45 13
22 26 42 29 45 15 13 125 186 123 193 -1 4 2 7 7 7 9 0 48 58 63 93 4 9 12 17
18 17 5 0 9 3 8 8 -2 7 71 123 84 133 5 3 -7 27 -25 55 -19 27 -47 69 -63 94
-16 25 -31 47 -34 50 -13 13 -70 101 -70 108 0 5 -8 17 -17 28 -30 34 -63 83
-63 94 0 5 -3 10 -8 10 -4 0 -18 20 -32 45 -14 25 -28 45 -32 45 -5 0 -8 4 -8
10 0 5 -21 40 -48 77 -26 38 -53 80 -61 96 -8 15 -18 27 -23 27 -4 0 -8 5 -8
10 0 6 -5 16 -10 23 -6 7 -34 48 -63 92 -28 44 -55 82 -59 83 -5 2 -8 10 -8
18 0 8 -4 14 -10 14 -5 0 -10 5 -10 11 0 6 -13 28 -30 49 -16 21 -30 41 -30
44 0 6 -38 64 -50 76 -13 13 -70 102 -70 109 0 4 -9 16 -20 26 -11 10 -20 22
-20 28 0 5 -13 26 -30 47 -16 21 -30 40 -30 44 0 6 -60 95 -77 113 -6 7 -15
22 -18 33 -3 11 -11 20 -16 20 -5 0 -9 4 -9 9 0 4 -28 50 -62 100 -35 51 -67
100 -73 109 -5 9 -22 33 -37 53 -16 20 -28 40 -28 45 0 4 -18 31 -40 60 -22
29 -40 58 -40 64 0 5 -4 10 -10 10 -5 0 -10 4 -10 10 0 7 -48 82 -87 136 -8
10 -19 27 -53 79 -10 17 -24 35 -29 42 -6 7 -11 16 -11 21 0 4 -8 17 -18 28
-9 10 -33 44 -52 74 -19 30 -38 57 -42 58 -5 2 -8 10 -8 18 0 8 -3 14 -8 14
-4 0 -16 17 -27 37 -11 20 -25 41 -30 47 -6 6 -22 29 -35 51 -13 22 -30 46
-37 53 -7 7 -13 17 -13 22 0 5 -6 15 -13 22 -7 7 -24 31 -37 53 -13 22 -27 42
-30 45 -3 3 -21 30 -40 60 -19 30 -38 57 -42 58 -5 2 -8 10 -8 17 0 7 -3 15
-7 17 -5 2 -25 29 -45 61 -21 31 -55 83 -75 115 -21 31 -40 59 -43 62 -3 3
-24 34 -47 70 -24 36 -47 70 -53 77 -5 7 -10 17 -10 23 0 5 -4 10 -10 10 -5 0
-10 4 -10 10 0 5 -18 35 -40 67 -22 32 -46 66 -53 77 -6 10 -24 36 -39 57 -16
21 -28 43 -28 47 0 5 -8 17 -18 28 -10 10 -29 37 -42 59 -13 22 -27 42 -30 45
-3 3 -21 30 -40 60 -19 30 -38 57 -42 58 -5 2 -8 10 -8 17 0 7 -3 15 -8 17 -4
2 -23 28 -42 58 -19 30 -37 57 -40 60 -3 3 -9 12 -15 21 -5 9 -23 36 -40 60
-16 24 -32 49 -35 54 -12 23 -66 100 -72 103 -5 2 -8 10 -8 18 0 8 -4 14 -10
14 -5 0 -10 4 -10 10 0 8 -57 98 -71 110 -3 3 -16 23 -29 45 -13 22 -26 42
-29 45 -4 3 -10 12 -16 21 -5 10 -25 38 -42 63 -18 26 -33 50 -33 53 0 3 -13
22 -30 43 -16 21 -30 41 -30 46 0 4 -18 31 -40 60 -22 29 -40 58 -40 64 0 5
-4 10 -10 10 -5 0 -10 6 -10 13 0 8 -9 22 -20 32 -11 10 -20 24 -20 32 0 7 -4
13 -10 13 -5 0 -10 7 -10 15 0 8 -3 15 -8 15 -4 0 -18 20 -31 45 -13 25 -28
45 -32 45 -5 0 -9 7 -9 15 0 8 -3 15 -8 15 -4 0 -16 16 -26 35 -11 19 -23 35
-28 35 -4 0 -8 6 -8 14 0 8 -20 41 -45 75 -25 34 -45 66 -45 71 0 6 -4 10 -10
10 -5 0 -10 5 -10 10 0 10 -37 67 -51 80 -3 3 -16 23 -29 45 -13 22 -30 46
-37 53 -7 7 -13 17 -13 22 0 5 -6 15 -13 22 -7 7 -24 31 -37 53 -13 22 -29 45
-35 51 -5 7 -22 31 -37 55 -45 72 -53 84 -58 89 -3 3 -21 30 -41 60 -20 30
-81 121 -135 203 -54 81 -103 155 -109 164 -5 10 -15 23 -22 30 -6 7 -15 22
-18 33 -3 11 -10 20 -15 20 -4 0 -10 8 -14 18 -3 9 -16 31 -28 48 -26 36 -232
344 -280 419 -18 28 -35 52 -38 55 -3 3 -17 23 -30 45 -56 95 -48 96 -126 -18z
m86 -580 c0 -7 9 -23 20 -35 12 -12 17 -22 13 -22 -4 0 -3 -4 3 -8 10 -7 90
-123 128 -186 10 -17 22 -32 27 -34 5 -2 9 -10 9 -18 0 -8 5 -14 10 -14 6 0
10 -4 10 -10 0 -5 29 -52 65 -105 36 -52 65 -97 65 -100 0 -6 11 -21 38 -50 7
-8 10 -15 5 -15 -4 0 0 -5 10 -11 9 -5 17 -17 17 -24 0 -8 5 -15 10 -15 6 0
10 -6 10 -14 0 -7 7 -19 15 -26 9 -7 23 -28 31 -46 9 -19 20 -34 25 -34 5 0 9
-7 9 -15 0 -8 5 -15 10 -15 6 0 10 -6 11 -12 0 -7 20 -40 44 -73 24 -33 52
-75 61 -92 9 -18 20 -33 25 -33 5 0 9 -7 9 -15 0 -8 5 -15 10 -15 6 0 10 -4
10 -10 0 -5 29 -52 65 -105 36 -52 65 -97 65 -100 0 -6 11 -20 38 -50 6 -7 12
-16 12 -19 0 -9 104 -161 112 -164 5 -2 8 -8 8 -12 0 -11 61 -103 74 -112 7
-5 7 -8 1 -8 -6 0 -6 -3 1 -8 6 -4 69 -95 139 -202 71 -107 133 -196 137 -198
4 -2 8 -10 8 -18 0 -8 5 -14 10 -14 6 0 10 -4 10 -10 0 -11 82 -133 93 -138 4
-2 7 -8 7 -13 0 -5 16 -32 35 -59 19 -27 35 -52 35 -55 0 -3 9 -16 21 -28 11
-12 27 -37 36 -54 8 -18 19 -33 24 -33 5 0 9 -7 9 -15 0 -8 5 -15 10 -15 6 0
10 -5 10 -10 0 -9 114 -184 130 -200 3 -3 11 -17 19 -32 8 -16 18 -28 23 -28
4 0 8 -4 8 -9 0 -8 79 -131 105 -163 8 -10 11 -18 7 -18 -4 0 -2 -4 4 -8 6 -4
42 -54 79 -112 38 -58 73 -106 77 -108 4 -2 8 -10 8 -17 0 -8 8 -19 18 -24 9
-6 14 -11 10 -11 -4 0 22 -43 57 -95 36 -52 65 -97 65 -100 0 -6 11 -20 38
-50 6 -7 12 -18 12 -24 0 -6 5 -11 10 -11 6 0 10 -6 10 -13 0 -7 12 -28 28
-47 15 -19 34 -47 41 -62 8 -16 18 -28 23 -28 4 0 8 -7 8 -15 0 -8 5 -15 10
-15 6 0 10 -6 11 -12 0 -7 20 -40 44 -73 24 -33 52 -75 61 -92 9 -18 20 -33
25 -33 5 0 9 -7 9 -15 0 -8 5 -15 10 -15 6 0 10 -4 10 -10 0 -9 95 -155 126
-192 7 -10 10 -18 6 -18 -4 0 -2 -4 4 -8 5 -4 32 -41 60 -82 27 -41 52 -76 57
-78 4 -2 7 -7 7 -12 0 -11 82 -134 93 -138 4 -2 7 -10 7 -18 0 -8 5 -14 11
-14 5 0 8 -4 5 -9 -4 -5 -2 -11 2 -13 5 -1 67 -91 138 -198 70 -107 132 -199
137 -205 4 -5 22 -32 39 -60 18 -27 35 -52 38 -55 3 -3 11 -17 19 -32 8 -16
18 -28 23 -28 4 0 8 -5 8 -10 0 -6 16 -33 35 -60 19 -27 35 -53 35 -56 0 -4
10 -15 22 -25 11 -11 18 -19 14 -19 -4 0 8 -21 26 -46 18 -26 42 -62 53 -80
11 -18 28 -43 38 -54 9 -11 17 -22 17 -25 0 -3 16 -28 35 -55 19 -27 35 -52
35 -55 0 -6 11 -20 38 -50 6 -7 12 -17 12 -20 0 -7 60 -96 71 -105 3 -3 8 -9
10 -15 8 -20 103 -160 111 -163 4 -2 8 -8 8 -13 0 -5 16 -32 35 -59 19 -27 35
-52 35 -55 0 -6 11 -20 38 -50 6 -7 12 -16 12 -19 0 -9 104 -161 112 -164 5
-2 8 -9 8 -16 0 -7 9 -22 19 -33 19 -20 19 -21 -61 -138 -44 -65 -88 -130 -97
-145 -9 -15 -83 -128 -166 -251 -82 -123 -154 -231 -160 -240 -5 -9 -38 -58
-72 -109 -35 -51 -63 -96 -63 -100 0 -5 -4 -10 -8 -12 -4 -1 -66 -91 -137
-198 -72 -107 -133 -199 -137 -204 -4 -7 -93 -11 -233 -12 l-227 -1 -11 26
c-5 14 -11 28 -12 31 -1 3 -19 59 -40 125 -22 66 -39 123 -40 127 0 3 -3 10
-7 14 -5 4 -8 16 -8 26 0 10 -4 26 -10 36 -5 9 -30 82 -56 162 l-46 146 -384
-1 -384 0 -1 25 c0 14 -1 456 -1 983 l-1 959 -26 16 c-42 25 -206 135 -211
141 -3 3 -21 15 -40 25 -19 11 -37 23 -40 26 -3 4 -52 38 -110 76 -58 37 -107
71 -110 74 -3 3 -79 54 -170 114 -91 61 -167 112 -170 115 -3 3 -16 12 -30 19
-69 36 -63 -4 -64 465 l-1 424 -25 21 c-101 86 -197 167 -207 176 -6 6 -29 26
-50 43 -21 18 -49 42 -63 54 -14 12 -35 29 -47 39 -18 14 -23 29 -26 89 -2 39
1 71 6 71 4 0 5 5 1 11 -9 15 -9 213 0 228 4 6 4 11 -1 11 -4 0 -8 52 -8 115
0 63 4 115 8 115 5 0 5 5 1 11 -3 6 -7 32 -8 57 -1 40 -11 60 -66 140 -36 51
-69 102 -75 113 -5 10 -13 19 -17 19 -5 0 -8 7 -8 15 0 8 -4 15 -8 15 -4 0
-21 22 -37 50 -17 27 -33 50 -37 50 -4 0 -14 15 -23 34 -9 18 -25 43 -35 54
-11 12 -20 25 -20 31 0 5 -3 11 -7 13 -12 5 -73 95 -73 107 0 6 -3 11 -8 11
-4 0 -18 18 -32 40 -14 22 -30 40 -36 40 -10 0 -105 -131 -148 -203 -10 -18
-21 -34 -25 -37 -4 -3 -26 -34 -50 -70 -24 -36 -48 -66 -53 -68 -4 -2 -8 -8
-8 -14 0 -11 -61 -101 -72 -106 -5 -2 -8 -8 -8 -12 0 -5 -27 -46 -60 -92 l-60
-83 0 -364 0 -364 -38 -36 c-21 -20 -71 -63 -112 -96 -41 -33 -88 -73 -106
-90 -17 -16 -61 -54 -98 -84 l-66 -55 0 -410 c0 -225 2 -407 5 -405 2 3 7 22
11 43 5 37 7 46 19 99 3 12 8 36 11 52 3 17 10 50 15 75 6 25 13 56 15 70 2
14 6 35 9 47 3 13 5 24 6 25 0 2 4 21 10 43 5 22 12 54 15 70 3 17 7 36 9 43
3 7 14 59 26 115 11 56 22 109 24 117 2 8 4 20 4 27 1 11 78 96 239 261 39 41
72 76 72 77 0 2 36 40 80 84 44 45 80 86 80 91 0 6 7 10 16 10 11 0 14 5 10
17 -4 10 -4 14 0 11 7 -8 70 52 67 63 -2 5 5 5 14 2 12 -5 15 -2 10 10 -4 10
-2 14 6 11 7 -2 34 16 60 40 26 25 47 42 47 39 0 -3 6 -1 13 5 9 8 12 -31 11
-190 0 -227 -12 -196 106 -288 36 -28 72 -56 80 -63 8 -7 33 -26 55 -42 22
-17 46 -35 55 -42 8 -7 78 -61 155 -121 l140 -108 2 -257 c1 -141 -1 -257 -3
-257 -5 0 -66 42 -74 51 -3 3 -12 8 -20 12 -20 9 -54 30 -60 38 -3 3 -63 45
-135 92 -71 48 -166 111 -210 141 -44 31 -83 55 -86 56 -3 0 -5 -874 -4 -1942
0 -1069 -1 -1950 -3 -1959 -3 -14 -43 -16 -373 -15 -203 1 -369 -2 -369 -5 0
-3 -20 -3 -44 1 -24 3 -53 3 -64 -1 -12 -5 -24 -4 -27 1 -5 8 -50 4 -66 -6 -4
-2 -10 -1 -13 4 -5 8 -121 6 -143 -3 -7 -2 -13 0 -13 5 0 6 -9 6 -25 0 -15 -6
-27 -6 -30 0 -3 5 -12 7 -20 4 -22 -9 -126 -10 -131 -2 -3 4 -11 5 -19 2 -23
-9 -125 -10 -125 -1 0 5 -5 5 -12 1 -6 -4 -423 -8 -925 -9 l-914 -2 -17 29
c-9 15 -20 28 -24 28 -4 0 -8 6 -8 13 0 7 -8 22 -18 33 -9 10 -23 31 -31 47
-8 15 -18 27 -23 27 -4 0 -8 5 -8 10 0 6 -16 33 -35 60 -19 27 -35 52 -35 56
0 3 -6 12 -13 19 -26 30 -37 44 -37 49 0 9 -104 161 -112 164 -5 2 -8 9 -8 16
0 7 -8 21 -17 32 -24 27 -42 55 -49 77 -4 9 -10 17 -15 17 -4 0 -15 15 -24 34
-9 18 -25 43 -35 54 -11 12 -20 26 -20 32 0 5 -3 10 -8 10 -4 0 -13 13 -20 28
-6 16 -21 38 -32 50 -11 12 -20 24 -20 27 0 3 -16 28 -35 55 -19 27 -35 52
-35 55 0 6 -11 20 -38 50 -6 7 -12 17 -13 22 0 4 -16 28 -34 53 -19 25 -42 60
-51 78 -9 17 -20 32 -25 32 -5 0 -9 7 -9 15 0 8 -4 15 -10 15 -5 0 -10 5 -10
10 0 6 -16 33 -35 61 l-34 51 22 31 c12 18 27 35 32 39 6 4 7 8 3 8 -4 0 -1 8
7 18 8 9 52 76 99 147 47 72 89 135 94 140 4 6 30 44 57 85 26 41 53 78 59 82
7 5 7 8 1 8 -6 0 -6 3 1 8 5 4 51 70 102 147 51 77 96 145 100 150 5 6 25 36
46 69 20 32 41 63 47 69 5 7 56 84 114 172 57 88 108 165 113 170 4 6 30 44
57 85 26 41 53 78 59 82 6 4 8 8 4 8 -4 0 -1 8 7 18 8 9 43 62 79 117 36 55
72 109 80 120 9 11 44 63 78 115 34 52 66 97 70 98 5 2 6 8 2 13 -3 5 -1 9 3
9 5 0 22 23 38 50 16 28 33 50 38 50 4 0 6 4 3 9 -4 5 -3 11 2 13 4 1 31 39
60 83 29 44 59 89 66 100 8 11 80 119 160 240 80 121 150 225 154 230 5 6 25
36 46 69 20 32 41 63 47 69 5 7 56 84 114 172 57 88 108 165 113 170 4 6 102
152 217 325 115 173 213 317 217 318 4 2 8 7 8 12 0 7 1201 1814 1248 1878 9
13 98 146 197 297 163 248 205 302 205 262z m-172 -2701 c0 -40 2 -78 6 -85 4
-6 4 -11 -1 -11 -4 0 -7 -26 -5 -58 3 -42 -1 -63 -11 -73 -37 -36 -86 -78
-109 -93 l-25 -16 1 137 1 136 70 69 c39 37 71 68 72 68 1 0 2 -33 1 -74z
m369 -10 l63 -59 0 -134 c0 -73 -3 -133 -7 -133 -5 0 -28 19 -53 41 -25 22
-55 47 -66 55 -20 14 -21 24 -22 160 -1 110 1 143 11 137 6 -4 40 -34 74 -67z
m306 -2050 c16 -10 17 -36 17 -303 l0 -292 -85 38 c-47 21 -88 41 -93 45 -4 4
-7 142 -7 307 l-1 298 76 -41 c41 -23 83 -46 93 -52z m482 -276 c17 -8 33 -19
37 -24 8 -12 8 -527 0 -522 -21 12 -109 50 -121 52 -8 2 -17 7 -20 12 -5 8 -7
503 -2 535 0 4 18 -3 39 -16 20 -12 51 -29 67 -37z m408 -224 c19 -13 43 -27
53 -30 18 -5 19 -20 18 -243 -1 -269 5 -253 -82 -209 l-44 22 1 187 c0 293 1
297 10 297 4 0 24 -11 44 -24z m-1023 -603 c4 0 47 -14 120 -41 8 -3 18 -4 23
-4 4 1 7 -131 7 -293 l0 -294 -32 5 c-18 3 -44 10 -58 15 -14 4 -37 10 -52 12
-15 1 -31 6 -35 11 -4 4 -8 142 -8 306 0 264 1 297 15 290 8 -4 17 -8 20 -7z
m597 -208 l61 -20 0 -262 c0 -145 -3 -263 -6 -263 -4 0 -25 5 -47 11 -22 5
-51 12 -65 15 -13 3 -27 7 -30 10 -6 6 -8 504 -2 522 3 7 10 11 16 10 6 -2 39
-12 73 -23z m495 -183 c1 -9 3 -116 3 -237 -1 -245 5 -227 -70 -210 -16 3 -36
7 -42 7 -7 1 -13 11 -14 22 0 25 0 349 0 423 l1 52 59 -20 c37 -13 60 -27 63
-37z m-995 -875 l53 -2 0 -292 0 -293 -37 -1 c-74 -2 -136 1 -142 7 -6 6 -10
574 -4 586 2 4 20 5 41 2 20 -3 61 -6 89 -7z m483 -54 c83 -6 75 22 76 -271
l1 -262 -36 -1 c-20 0 -51 -1 -69 -2 -19 -1 -37 2 -40 8 -10 16 -9 519 1 532
5 7 14 10 20 6 6 -4 27 -8 47 -10z m505 -53 c11 0 13 -465 2 -477 -7 -7 -108
-5 -115 2 -3 3 -5 326 -3 454 l1 33 53 -6 c28 -3 57 -6 62 -6z"/>
<path d="M6855 10083 c-38 -30 -71 -59 -73 -64 -2 -5 -8 -9 -14 -9 -5 0 -33
-19 -63 -42 -81 -65 -91 -73 -218 -171 -66 -51 -126 -97 -134 -104 -13 -10
-15 -47 -15 -232 0 -121 3 -225 7 -230 3 -6 3 -11 -2 -11 -4 0 -8 -11 -8 -25
0 -14 2 -25 4 -25 5 0 75 43 81 50 3 3 59 41 125 85 66 43 122 82 123 87 2 4
9 8 16 8 7 0 21 8 32 18 23 19 52 39 74 49 8 4 20 12 27 18 6 7 34 26 62 44
28 18 51 36 52 40 4 26 3 571 -1 570 -3 0 -36 -25 -75 -56z"/>
<path d="M6485 8677 l-90 -52 -1 -285 c0 -157 1 -288 3 -292 2 -3 44 12 93 35
l90 41 0 303 c0 167 -1 303 -2 303 -2 -1 -43 -24 -93 -53z"/>
<path d="M5593 8645 c-29 -19 -55 -35 -58 -35 -3 0 -11 -5 -18 -10 -14 -12
-138 -94 -257 -169 -47 -30 -87 -57 -90 -60 -7 -9 -42 -30 -65 -40 -12 -5 -26
-15 -32 -22 -12 -15 -16 -1899 -4 -1899 3 0 6 19 7 43 1 41 10 152 20 229 2
21 6 63 9 95 3 32 7 72 9 89 3 17 8 64 11 105 8 87 13 146 20 214 3 28 7 70 9
95 3 25 5 45 6 45 0 0 3 23 5 50 8 95 23 255 31 329 2 22 6 66 9 96 3 30 7 73
9 95 3 22 8 72 11 110 12 129 -2 98 128 275 188 254 212 285 220 288 4 2 7 10
7 17 0 7 4 15 8 17 9 3 67 78 61 78 -3 0 -28 -16 -56 -35z"/>
<path d="M5990 8395 c-19 -13 -40 -24 -46 -24 -6 -1 -20 -9 -32 -19 -19 -17
-20 -28 -21 -275 0 -141 2 -257 5 -257 2 0 37 14 77 30 l72 31 0 69 c0 39 -4
70 -8 70 -5 0 -5 5 -1 11 10 16 13 99 3 93 -5 -3 -6 1 -4 8 10 24 11 128 3
128 -5 0 -5 8 1 17 6 11 6 24 0 35 -5 9 -6 19 -2 21 11 7 9 80 -2 83 -6 2 -26
-8 -45 -21z"/>
<path d="M5543 8148 c-13 -6 -23 -15 -23 -20 0 -5 -4 -7 -9 -4 -5 3 -20 -3
-32 -13 -24 -19 -24 -20 -25 -251 0 -127 3 -233 6 -235 4 -2 31 8 61 23 l54
27 3 243 c1 133 -1 242 -5 241 -5 0 -18 -5 -30 -11z"/>
<path d="M6500 7519 c-25 -9 -52 -18 -60 -22 -8 -3 -22 -7 -30 -10 -13 -3 -15
-45 -16 -295 l0 -292 30 6 c17 3 59 12 94 21 l62 15 0 299 c0 335 7 309 -80
278z"/>
<path d="M5963 7333 l-71 -26 0 -258 c-1 -254 0 -264 29 -261 4 1 19 4 35 8
16 3 41 8 57 11 15 3 27 8 28 12 4 52 2 121 -4 121 -5 0 -5 5 -1 12 10 16 11
268 1 268 -5 0 -5 5 -1 11 9 16 13 100 4 94 -5 -3 -6 4 -3 15 3 11 4 20 2 19
-2 0 -36 -12 -76 -26z"/>
<path d="M5514 7178 l-61 -21 1 -236 c1 -229 2 -236 21 -235 28 2 87 14 96 20
7 4 12 496 6 493 -1 0 -29 -10 -63 -21z"/>
<path d="M4342 6340 c-34 -3 -62 -8 -61 -13 0 -4 -9 -38 -21 -75 -12 -37 -23
-71 -25 -77 -1 -5 -5 -17 -8 -25 -3 -8 -14 -40 -23 -70 -9 -30 -21 -61 -27
-67 -5 -7 -7 -13 -3 -13 4 0 0 -13 -9 -30 -8 -16 -15 -31 -14 -32 0 -2 -7 -30
-17 -63 -10 -33 -19 -64 -20 -70 -2 -5 -12 -37 -24 -69 -11 -33 -19 -61 -17
-63 3 -2 111 202 171 324 10 21 23 41 28 44 5 3 8 9 6 11 -1 3 15 39 37 81
l40 76 65 12 c36 6 74 13 85 15 11 3 34 6 50 9 33 6 66 12 105 21 14 3 39 7
55 10 17 3 62 11 100 19 81 16 142 26 169 29 37 4 26 21 -11 19 -21 -1 -40 -2
-43 -3 -3 -2 -8 -2 -13 -1 -14 2 -232 3 -242 1 -5 -1 -14 -2 -20 -1 -25 5
-217 2 -222 -3 -4 -3 -11 -2 -17 2 -6 4 -39 5 -74 2z"/>
<path d="M6470 6268 c-30 -3 -58 -5 -61 -2 -14 8 -16 -28 -15 -306 l1 -285 25
0 c14 0 40 3 58 6 17 4 32 4 32 0 0 -4 16 -5 35 -3 l35 4 0 298 0 298 -27 -2
c-16 0 -53 -4 -83 -8z"/>
<path d="M6016 6223 c-4 -4 -17 -8 -29 -9 -12 -1 -38 -3 -59 -5 l-36 -3 0
-262 -1 -262 60 -4 c33 -1 67 0 76 3 17 6 26 59 10 59 -4 0 -6 4 -2 9 10 17
13 71 3 71 -5 0 -6 5 -2 12 10 16 11 148 1 148 -5 0 -5 5 -1 12 4 7 7 59 7
116 -1 97 -9 133 -27 115z"/>
<path d="M5483 6162 c-13 -2 -24 -6 -25 -10 -6 -28 -3 -464 4 -468 4 -3 27 -6
50 -7 44 -3 85 23 72 44 -3 6 -6 109 -5 230 l1 219 -37 -2 c-21 -2 -48 -4 -60
-6z"/>
</g>
</svg>
